<mxfile host="app.diagrams.net" modified="2023-09-01T14:56:28.228Z" agent="Mozilla/5.0 (Windows NT 10.0; Win64; x64) AppleWebKit/537.36 (KHTML, like Gecko) Chrome/114.0.0.0 Safari/537.36 Edg/114.0.1823.106" etag="jxfuZExaJr0Zn5zhifGf" version="21.6.9" type="github">
  <diagram name="Seite-1" id="PfpxPfgZqKipbwy2En_Y">
    <mxGraphModel dx="1684" dy="457" grid="1" gridSize="10" guides="1" tooltips="1" connect="1" arrows="1" fold="1" page="1" pageScale="1" pageWidth="827" pageHeight="1169" math="0" shadow="0">
      <root>
        <mxCell id="0" />
        <mxCell id="1" parent="0" />
        <mxCell id="ZoKTxdcFLCi5wjSBSqeG-37" value="BASISANORDNUNG" style="shape=table;startSize=30;container=1;collapsible=1;childLayout=tableLayout;fixedRows=1;rowLines=0;fontStyle=1;align=center;resizeLast=1;html=1;fillColor=#fff2cc;strokeColor=#9f8d56;" vertex="1" parent="1">
          <mxGeometry x="270" y="660" width="180" height="90" as="geometry" />
        </mxCell>
        <mxCell id="ZoKTxdcFLCi5wjSBSqeG-38" value="" style="shape=tableRow;horizontal=0;startSize=0;swimlaneHead=0;swimlaneBody=0;fillColor=#fff2cc;collapsible=0;dropTarget=0;points=[[0,0.5],[1,0.5]];portConstraint=eastwest;top=0;left=0;right=0;bottom=1;strokeColor=#9f8d56;" vertex="1" parent="ZoKTxdcFLCi5wjSBSqeG-37">
          <mxGeometry y="30" width="180" height="30" as="geometry" />
        </mxCell>
        <mxCell id="ZoKTxdcFLCi5wjSBSqeG-39" value="PK" style="shape=partialRectangle;connectable=0;fillColor=#fff2cc;top=0;left=0;bottom=0;right=0;fontStyle=1;overflow=hidden;whiteSpace=wrap;html=1;strokeColor=#9f8d56;" vertex="1" parent="ZoKTxdcFLCi5wjSBSqeG-38">
          <mxGeometry width="30" height="30" as="geometry">
            <mxRectangle width="30" height="30" as="alternateBounds" />
          </mxGeometry>
        </mxCell>
        <mxCell id="ZoKTxdcFLCi5wjSBSqeG-40" value="ID" style="shape=partialRectangle;connectable=0;fillColor=#fff2cc;top=0;left=0;bottom=0;right=0;align=left;spacingLeft=6;fontStyle=5;overflow=hidden;whiteSpace=wrap;html=1;strokeColor=#9f8d56;" vertex="1" parent="ZoKTxdcFLCi5wjSBSqeG-38">
          <mxGeometry x="30" width="150" height="30" as="geometry">
            <mxRectangle width="150" height="30" as="alternateBounds" />
          </mxGeometry>
        </mxCell>
        <mxCell id="ZoKTxdcFLCi5wjSBSqeG-41" value="" style="shape=tableRow;horizontal=0;startSize=0;swimlaneHead=0;swimlaneBody=0;fillColor=#fff2cc;collapsible=0;dropTarget=0;points=[[0,0.5],[1,0.5]];portConstraint=eastwest;top=0;left=0;right=0;bottom=0;strokeColor=#9f8d56;" vertex="1" parent="ZoKTxdcFLCi5wjSBSqeG-37">
          <mxGeometry y="60" width="180" height="30" as="geometry" />
        </mxCell>
        <mxCell id="ZoKTxdcFLCi5wjSBSqeG-42" value="" style="shape=partialRectangle;connectable=0;fillColor=#fff2cc;top=0;left=0;bottom=0;right=0;editable=1;overflow=hidden;whiteSpace=wrap;html=1;strokeColor=#9f8d56;" vertex="1" parent="ZoKTxdcFLCi5wjSBSqeG-41">
          <mxGeometry width="30" height="30" as="geometry">
            <mxRectangle width="30" height="30" as="alternateBounds" />
          </mxGeometry>
        </mxCell>
        <mxCell id="ZoKTxdcFLCi5wjSBSqeG-43" value="...." style="shape=partialRectangle;connectable=0;fillColor=#fff2cc;top=0;left=0;bottom=0;right=0;align=left;spacingLeft=6;overflow=hidden;whiteSpace=wrap;html=1;strokeColor=#9f8d56;" vertex="1" parent="ZoKTxdcFLCi5wjSBSqeG-41">
          <mxGeometry x="30" width="150" height="30" as="geometry">
            <mxRectangle width="150" height="30" as="alternateBounds" />
          </mxGeometry>
        </mxCell>
        <mxCell id="ZoKTxdcFLCi5wjSBSqeG-50" value="ANORDNUNGSVERTEILER" style="shape=table;startSize=30;container=1;collapsible=1;childLayout=tableLayout;fixedRows=1;rowLines=0;fontStyle=1;align=center;resizeLast=1;html=1;fillColor=#fff2cc;strokeColor=#9f8d56;" vertex="1" parent="1">
          <mxGeometry x="640" y="400" width="210" height="120" as="geometry" />
        </mxCell>
        <mxCell id="ZoKTxdcFLCi5wjSBSqeG-51" value="" style="shape=tableRow;horizontal=0;startSize=0;swimlaneHead=0;swimlaneBody=0;fillColor=#fff2cc;collapsible=0;dropTarget=0;points=[[0,0.5],[1,0.5]];portConstraint=eastwest;top=0;left=0;right=0;bottom=1;strokeColor=#9f8d56;" vertex="1" parent="ZoKTxdcFLCi5wjSBSqeG-50">
          <mxGeometry y="30" width="210" height="30" as="geometry" />
        </mxCell>
        <mxCell id="ZoKTxdcFLCi5wjSBSqeG-52" value="PK" style="shape=partialRectangle;connectable=0;fillColor=#fff2cc;top=0;left=0;bottom=0;right=0;fontStyle=1;overflow=hidden;whiteSpace=wrap;html=1;strokeColor=#9f8d56;" vertex="1" parent="ZoKTxdcFLCi5wjSBSqeG-51">
          <mxGeometry width="30" height="30" as="geometry">
            <mxRectangle width="30" height="30" as="alternateBounds" />
          </mxGeometry>
        </mxCell>
        <mxCell id="ZoKTxdcFLCi5wjSBSqeG-53" value="ID" style="shape=partialRectangle;connectable=0;fillColor=#fff2cc;top=0;left=0;bottom=0;right=0;align=left;spacingLeft=6;fontStyle=5;overflow=hidden;whiteSpace=wrap;html=1;strokeColor=#9f8d56;" vertex="1" parent="ZoKTxdcFLCi5wjSBSqeG-51">
          <mxGeometry x="30" width="180" height="30" as="geometry">
            <mxRectangle width="180" height="30" as="alternateBounds" />
          </mxGeometry>
        </mxCell>
        <mxCell id="ZoKTxdcFLCi5wjSBSqeG-60" value="" style="shape=tableRow;horizontal=0;startSize=0;swimlaneHead=0;swimlaneBody=0;fillColor=#fff2cc;collapsible=0;dropTarget=0;points=[[0,0.5],[1,0.5]];portConstraint=eastwest;top=0;left=0;right=0;bottom=0;strokeColor=#9f8d56;" vertex="1" parent="ZoKTxdcFLCi5wjSBSqeG-50">
          <mxGeometry y="60" width="210" height="30" as="geometry" />
        </mxCell>
        <mxCell id="ZoKTxdcFLCi5wjSBSqeG-61" value="" style="shape=partialRectangle;connectable=0;fillColor=#fff2cc;top=0;left=0;bottom=0;right=0;editable=1;overflow=hidden;whiteSpace=wrap;html=1;strokeColor=#9f8d56;" vertex="1" parent="ZoKTxdcFLCi5wjSBSqeG-60">
          <mxGeometry width="30" height="30" as="geometry">
            <mxRectangle width="30" height="30" as="alternateBounds" />
          </mxGeometry>
        </mxCell>
        <mxCell id="ZoKTxdcFLCi5wjSBSqeG-62" value="&lt;span style=&quot;border-color: var(--border-color);&quot;&gt;TYPE&lt;/span&gt;:&amp;nbsp;&lt;font style=&quot;border-color: var(--border-color); font-size: 9px;&quot;&gt;ANORDNER, FESTSTELLER&lt;/font&gt;" style="shape=partialRectangle;connectable=0;fillColor=#fff2cc;top=0;left=0;bottom=0;right=0;align=left;spacingLeft=6;overflow=hidden;whiteSpace=wrap;html=1;strokeColor=#9f8d56;" vertex="1" parent="ZoKTxdcFLCi5wjSBSqeG-60">
          <mxGeometry x="30" width="180" height="30" as="geometry">
            <mxRectangle width="180" height="30" as="alternateBounds" />
          </mxGeometry>
        </mxCell>
        <mxCell id="ZoKTxdcFLCi5wjSBSqeG-54" value="" style="shape=tableRow;horizontal=0;startSize=0;swimlaneHead=0;swimlaneBody=0;fillColor=#fff2cc;collapsible=0;dropTarget=0;points=[[0,0.5],[1,0.5]];portConstraint=eastwest;top=0;left=0;right=0;bottom=0;strokeColor=#9f8d56;" vertex="1" parent="ZoKTxdcFLCi5wjSBSqeG-50">
          <mxGeometry y="90" width="210" height="30" as="geometry" />
        </mxCell>
        <mxCell id="ZoKTxdcFLCi5wjSBSqeG-55" value="FK" style="shape=partialRectangle;connectable=0;fillColor=#fff2cc;top=0;left=0;bottom=0;right=0;editable=1;overflow=hidden;whiteSpace=wrap;html=1;strokeColor=#9f8d56;" vertex="1" parent="ZoKTxdcFLCi5wjSBSqeG-54">
          <mxGeometry width="30" height="30" as="geometry">
            <mxRectangle width="30" height="30" as="alternateBounds" />
          </mxGeometry>
        </mxCell>
        <mxCell id="ZoKTxdcFLCi5wjSBSqeG-56" value="BASISANORDNUNG_ID" style="shape=partialRectangle;connectable=0;fillColor=#fff2cc;top=0;left=0;bottom=0;right=0;align=left;spacingLeft=6;overflow=hidden;whiteSpace=wrap;html=1;strokeColor=#9f8d56;" vertex="1" parent="ZoKTxdcFLCi5wjSBSqeG-54">
          <mxGeometry x="30" width="180" height="30" as="geometry">
            <mxRectangle width="180" height="30" as="alternateBounds" />
          </mxGeometry>
        </mxCell>
        <mxCell id="ZoKTxdcFLCi5wjSBSqeG-67" value="" style="edgeStyle=entityRelationEdgeStyle;fontSize=12;html=1;endArrow=ERoneToMany;rounded=0;exitX=1;exitY=0.5;exitDx=0;exitDy=0;entryX=0;entryY=0.5;entryDx=0;entryDy=0;fillColor=#fff2cc;strokeColor=#9f8d56;" edge="1" parent="1" source="ZoKTxdcFLCi5wjSBSqeG-38" target="ZoKTxdcFLCi5wjSBSqeG-54">
          <mxGeometry width="100" height="100" relative="1" as="geometry">
            <mxPoint x="330" y="720" as="sourcePoint" />
            <mxPoint x="260" y="630" as="targetPoint" />
          </mxGeometry>
        </mxCell>
        <mxCell id="ZoKTxdcFLCi5wjSBSqeG-68" value="BEARBEITER" style="shape=table;startSize=30;container=1;collapsible=1;childLayout=tableLayout;fixedRows=1;rowLines=0;fontStyle=1;align=center;resizeLast=1;html=1;fillColor=#fff2cc;strokeColor=#9f8d56;" vertex="1" parent="1">
          <mxGeometry x="-40" y="660" width="180" height="120" as="geometry" />
        </mxCell>
        <mxCell id="ZoKTxdcFLCi5wjSBSqeG-69" value="" style="shape=tableRow;horizontal=0;startSize=0;swimlaneHead=0;swimlaneBody=0;fillColor=#fff2cc;collapsible=0;dropTarget=0;points=[[0,0.5],[1,0.5]];portConstraint=eastwest;top=0;left=0;right=0;bottom=1;strokeColor=#9f8d56;" vertex="1" parent="ZoKTxdcFLCi5wjSBSqeG-68">
          <mxGeometry y="30" width="180" height="30" as="geometry" />
        </mxCell>
        <mxCell id="ZoKTxdcFLCi5wjSBSqeG-70" value="PK" style="shape=partialRectangle;connectable=0;fillColor=#fff2cc;top=0;left=0;bottom=0;right=0;fontStyle=1;overflow=hidden;whiteSpace=wrap;html=1;strokeColor=#9f8d56;" vertex="1" parent="ZoKTxdcFLCi5wjSBSqeG-69">
          <mxGeometry width="30" height="30" as="geometry">
            <mxRectangle width="30" height="30" as="alternateBounds" />
          </mxGeometry>
        </mxCell>
        <mxCell id="ZoKTxdcFLCi5wjSBSqeG-71" value="ID" style="shape=partialRectangle;connectable=0;fillColor=#fff2cc;top=0;left=0;bottom=0;right=0;align=left;spacingLeft=6;fontStyle=5;overflow=hidden;whiteSpace=wrap;html=1;strokeColor=#9f8d56;" vertex="1" parent="ZoKTxdcFLCi5wjSBSqeG-69">
          <mxGeometry x="30" width="150" height="30" as="geometry">
            <mxRectangle width="150" height="30" as="alternateBounds" />
          </mxGeometry>
        </mxCell>
        <mxCell id="ZoKTxdcFLCi5wjSBSqeG-72" value="" style="shape=tableRow;horizontal=0;startSize=0;swimlaneHead=0;swimlaneBody=0;fillColor=#fff2cc;collapsible=0;dropTarget=0;points=[[0,0.5],[1,0.5]];portConstraint=eastwest;top=0;left=0;right=0;bottom=0;strokeColor=#9f8d56;" vertex="1" parent="ZoKTxdcFLCi5wjSBSqeG-68">
          <mxGeometry y="60" width="180" height="30" as="geometry" />
        </mxCell>
        <mxCell id="ZoKTxdcFLCi5wjSBSqeG-73" value="FK" style="shape=partialRectangle;connectable=0;fillColor=#fff2cc;top=0;left=0;bottom=0;right=0;editable=1;overflow=hidden;whiteSpace=wrap;html=1;strokeColor=#9f8d56;" vertex="1" parent="ZoKTxdcFLCi5wjSBSqeG-72">
          <mxGeometry width="30" height="30" as="geometry">
            <mxRectangle width="30" height="30" as="alternateBounds" />
          </mxGeometry>
        </mxCell>
        <mxCell id="ZoKTxdcFLCi5wjSBSqeG-74" value="TEAM_ID" style="shape=partialRectangle;connectable=0;fillColor=#fff2cc;top=0;left=0;bottom=0;right=0;align=left;spacingLeft=6;overflow=hidden;whiteSpace=wrap;html=1;strokeColor=#9f8d56;" vertex="1" parent="ZoKTxdcFLCi5wjSBSqeG-72">
          <mxGeometry x="30" width="150" height="30" as="geometry">
            <mxRectangle width="150" height="30" as="alternateBounds" />
          </mxGeometry>
        </mxCell>
        <mxCell id="ZoKTxdcFLCi5wjSBSqeG-128" value="" style="shape=tableRow;horizontal=0;startSize=0;swimlaneHead=0;swimlaneBody=0;fillColor=#fff2cc;collapsible=0;dropTarget=0;points=[[0,0.5],[1,0.5]];portConstraint=eastwest;top=0;left=0;right=0;bottom=0;strokeColor=#9f8d56;" vertex="1" parent="ZoKTxdcFLCi5wjSBSqeG-68">
          <mxGeometry y="90" width="180" height="30" as="geometry" />
        </mxCell>
        <mxCell id="ZoKTxdcFLCi5wjSBSqeG-129" value="" style="shape=partialRectangle;connectable=0;fillColor=#fff2cc;top=0;left=0;bottom=0;right=0;editable=1;overflow=hidden;whiteSpace=wrap;html=1;strokeColor=#9f8d56;" vertex="1" parent="ZoKTxdcFLCi5wjSBSqeG-128">
          <mxGeometry width="30" height="30" as="geometry">
            <mxRectangle width="30" height="30" as="alternateBounds" />
          </mxGeometry>
        </mxCell>
        <mxCell id="ZoKTxdcFLCi5wjSBSqeG-130" value="EMAIL" style="shape=partialRectangle;connectable=0;fillColor=#fff2cc;top=0;left=0;bottom=0;right=0;align=left;spacingLeft=6;overflow=hidden;whiteSpace=wrap;html=1;strokeColor=#9f8d56;" vertex="1" parent="ZoKTxdcFLCi5wjSBSqeG-128">
          <mxGeometry x="30" width="150" height="30" as="geometry">
            <mxRectangle width="150" height="30" as="alternateBounds" />
          </mxGeometry>
        </mxCell>
        <mxCell id="ZoKTxdcFLCi5wjSBSqeG-82" value="ANORDNUNGBENACHRICHTIGUNG" style="shape=table;startSize=30;container=1;collapsible=1;childLayout=tableLayout;fixedRows=1;rowLines=0;fontStyle=1;align=center;resizeLast=1;html=1;fillColor=#fff2cc;strokeColor=#9f8d56;" vertex="1" parent="1">
          <mxGeometry x="240" y="850" width="260" height="150" as="geometry" />
        </mxCell>
        <mxCell id="ZoKTxdcFLCi5wjSBSqeG-83" value="" style="shape=tableRow;horizontal=0;startSize=0;swimlaneHead=0;swimlaneBody=0;fillColor=#fff2cc;collapsible=0;dropTarget=0;points=[[0,0.5],[1,0.5]];portConstraint=eastwest;top=0;left=0;right=0;bottom=1;strokeColor=#9f8d56;" vertex="1" parent="ZoKTxdcFLCi5wjSBSqeG-82">
          <mxGeometry y="30" width="260" height="30" as="geometry" />
        </mxCell>
        <mxCell id="ZoKTxdcFLCi5wjSBSqeG-84" value="PK" style="shape=partialRectangle;connectable=0;fillColor=#fff2cc;top=0;left=0;bottom=0;right=0;fontStyle=1;overflow=hidden;whiteSpace=wrap;html=1;strokeColor=#9f8d56;" vertex="1" parent="ZoKTxdcFLCi5wjSBSqeG-83">
          <mxGeometry width="30" height="30" as="geometry">
            <mxRectangle width="30" height="30" as="alternateBounds" />
          </mxGeometry>
        </mxCell>
        <mxCell id="ZoKTxdcFLCi5wjSBSqeG-85" value="ID" style="shape=partialRectangle;connectable=0;fillColor=#fff2cc;top=0;left=0;bottom=0;right=0;align=left;spacingLeft=6;fontStyle=5;overflow=hidden;whiteSpace=wrap;html=1;strokeColor=#9f8d56;" vertex="1" parent="ZoKTxdcFLCi5wjSBSqeG-83">
          <mxGeometry x="30" width="230" height="30" as="geometry">
            <mxRectangle width="230" height="30" as="alternateBounds" />
          </mxGeometry>
        </mxCell>
        <mxCell id="ZoKTxdcFLCi5wjSBSqeG-86" value="" style="shape=tableRow;horizontal=0;startSize=0;swimlaneHead=0;swimlaneBody=0;fillColor=#fff2cc;collapsible=0;dropTarget=0;points=[[0,0.5],[1,0.5]];portConstraint=eastwest;top=0;left=0;right=0;bottom=0;strokeColor=#9f8d56;" vertex="1" parent="ZoKTxdcFLCi5wjSBSqeG-82">
          <mxGeometry y="60" width="260" height="30" as="geometry" />
        </mxCell>
        <mxCell id="ZoKTxdcFLCi5wjSBSqeG-87" value="" style="shape=partialRectangle;connectable=0;fillColor=#fff2cc;top=0;left=0;bottom=0;right=0;editable=1;overflow=hidden;whiteSpace=wrap;html=1;strokeColor=#9f8d56;" vertex="1" parent="ZoKTxdcFLCi5wjSBSqeG-86">
          <mxGeometry width="30" height="30" as="geometry">
            <mxRectangle width="30" height="30" as="alternateBounds" />
          </mxGeometry>
        </mxCell>
        <mxCell id="ZoKTxdcFLCi5wjSBSqeG-88" value="VERSAND_DATUM" style="shape=partialRectangle;connectable=0;fillColor=#fff2cc;top=0;left=0;bottom=0;right=0;align=left;spacingLeft=6;overflow=hidden;whiteSpace=wrap;html=1;strokeColor=#9f8d56;" vertex="1" parent="ZoKTxdcFLCi5wjSBSqeG-86">
          <mxGeometry x="30" width="230" height="30" as="geometry">
            <mxRectangle width="230" height="30" as="alternateBounds" />
          </mxGeometry>
        </mxCell>
        <mxCell id="ZoKTxdcFLCi5wjSBSqeG-89" value="" style="shape=tableRow;horizontal=0;startSize=0;swimlaneHead=0;swimlaneBody=0;fillColor=#fff2cc;collapsible=0;dropTarget=0;points=[[0,0.5],[1,0.5]];portConstraint=eastwest;top=0;left=0;right=0;bottom=0;strokeColor=#9f8d56;" vertex="1" parent="ZoKTxdcFLCi5wjSBSqeG-82">
          <mxGeometry y="90" width="260" height="30" as="geometry" />
        </mxCell>
        <mxCell id="ZoKTxdcFLCi5wjSBSqeG-90" value="" style="shape=partialRectangle;connectable=0;fillColor=#fff2cc;top=0;left=0;bottom=0;right=0;editable=1;overflow=hidden;whiteSpace=wrap;html=1;strokeColor=#9f8d56;" vertex="1" parent="ZoKTxdcFLCi5wjSBSqeG-89">
          <mxGeometry width="30" height="30" as="geometry">
            <mxRectangle width="30" height="30" as="alternateBounds" />
          </mxGeometry>
        </mxCell>
        <mxCell id="ZoKTxdcFLCi5wjSBSqeG-91" value="INHALT" style="shape=partialRectangle;connectable=0;fillColor=#fff2cc;top=0;left=0;bottom=0;right=0;align=left;spacingLeft=6;overflow=hidden;whiteSpace=wrap;html=1;strokeColor=#9f8d56;" vertex="1" parent="ZoKTxdcFLCi5wjSBSqeG-89">
          <mxGeometry x="30" width="230" height="30" as="geometry">
            <mxRectangle width="230" height="30" as="alternateBounds" />
          </mxGeometry>
        </mxCell>
        <mxCell id="ZoKTxdcFLCi5wjSBSqeG-92" value="" style="shape=tableRow;horizontal=0;startSize=0;swimlaneHead=0;swimlaneBody=0;fillColor=#fff2cc;collapsible=0;dropTarget=0;points=[[0,0.5],[1,0.5]];portConstraint=eastwest;top=0;left=0;right=0;bottom=0;strokeColor=#9f8d56;" vertex="1" parent="ZoKTxdcFLCi5wjSBSqeG-82">
          <mxGeometry y="120" width="260" height="30" as="geometry" />
        </mxCell>
        <mxCell id="ZoKTxdcFLCi5wjSBSqeG-93" value="FK" style="shape=partialRectangle;connectable=0;fillColor=#fff2cc;top=0;left=0;bottom=0;right=0;editable=1;overflow=hidden;whiteSpace=wrap;html=1;strokeColor=#9f8d56;" vertex="1" parent="ZoKTxdcFLCi5wjSBSqeG-92">
          <mxGeometry width="30" height="30" as="geometry">
            <mxRectangle width="30" height="30" as="alternateBounds" />
          </mxGeometry>
        </mxCell>
        <mxCell id="ZoKTxdcFLCi5wjSBSqeG-94" value="BASISANORDNUNG_ID" style="shape=partialRectangle;connectable=0;fillColor=#fff2cc;top=0;left=0;bottom=0;right=0;align=left;spacingLeft=6;overflow=hidden;whiteSpace=wrap;html=1;strokeColor=#9f8d56;" vertex="1" parent="ZoKTxdcFLCi5wjSBSqeG-92">
          <mxGeometry x="30" width="230" height="30" as="geometry">
            <mxRectangle width="230" height="30" as="alternateBounds" />
          </mxGeometry>
        </mxCell>
        <mxCell id="ZoKTxdcFLCi5wjSBSqeG-96" value="BENACHRICHTIGEVERTEILER" style="shape=table;startSize=30;container=1;collapsible=1;childLayout=tableLayout;fixedRows=1;rowLines=0;fontStyle=1;align=center;resizeLast=1;html=1;fillColor=#fff2cc;strokeColor=#9f8d56;" vertex="1" parent="1">
          <mxGeometry x="610" y="730" width="300.0000000000002" height="120" as="geometry" />
        </mxCell>
        <mxCell id="ZoKTxdcFLCi5wjSBSqeG-97" value="" style="shape=tableRow;horizontal=0;startSize=0;swimlaneHead=0;swimlaneBody=0;fillColor=#fff2cc;collapsible=0;dropTarget=0;points=[[0,0.5],[1,0.5]];portConstraint=eastwest;top=0;left=0;right=0;bottom=1;strokeColor=#9f8d56;" vertex="1" parent="ZoKTxdcFLCi5wjSBSqeG-96">
          <mxGeometry y="30" width="300.0000000000002" height="30" as="geometry" />
        </mxCell>
        <mxCell id="ZoKTxdcFLCi5wjSBSqeG-98" value="PK" style="shape=partialRectangle;connectable=0;fillColor=#fff2cc;top=0;left=0;bottom=0;right=0;fontStyle=1;overflow=hidden;whiteSpace=wrap;html=1;strokeColor=#9f8d56;" vertex="1" parent="ZoKTxdcFLCi5wjSBSqeG-97">
          <mxGeometry width="30" height="30" as="geometry">
            <mxRectangle width="30" height="30" as="alternateBounds" />
          </mxGeometry>
        </mxCell>
        <mxCell id="ZoKTxdcFLCi5wjSBSqeG-99" value="ID" style="shape=partialRectangle;connectable=0;fillColor=#fff2cc;top=0;left=0;bottom=0;right=0;align=left;spacingLeft=6;fontStyle=5;overflow=hidden;whiteSpace=wrap;html=1;strokeColor=#9f8d56;" vertex="1" parent="ZoKTxdcFLCi5wjSBSqeG-97">
          <mxGeometry x="30" width="270.0000000000002" height="30" as="geometry">
            <mxRectangle width="270.0000000000002" height="30" as="alternateBounds" />
          </mxGeometry>
        </mxCell>
        <mxCell id="ZoKTxdcFLCi5wjSBSqeG-100" value="" style="shape=tableRow;horizontal=0;startSize=0;swimlaneHead=0;swimlaneBody=0;fillColor=#fff2cc;collapsible=0;dropTarget=0;points=[[0,0.5],[1,0.5]];portConstraint=eastwest;top=0;left=0;right=0;bottom=0;strokeColor=#9f8d56;" vertex="1" parent="ZoKTxdcFLCi5wjSBSqeG-96">
          <mxGeometry y="60" width="300.0000000000002" height="30" as="geometry" />
        </mxCell>
        <mxCell id="ZoKTxdcFLCi5wjSBSqeG-101" value="FK" style="shape=partialRectangle;connectable=0;fillColor=#fff2cc;top=0;left=0;bottom=0;right=0;editable=1;overflow=hidden;whiteSpace=wrap;html=1;strokeColor=#9f8d56;" vertex="1" parent="ZoKTxdcFLCi5wjSBSqeG-100">
          <mxGeometry width="30" height="30" as="geometry">
            <mxRectangle width="30" height="30" as="alternateBounds" />
          </mxGeometry>
        </mxCell>
        <mxCell id="ZoKTxdcFLCi5wjSBSqeG-102" value="ANORDNUNGBENACHRICHTIGUNG_ID" style="shape=partialRectangle;connectable=0;fillColor=#fff2cc;top=0;left=0;bottom=0;right=0;align=left;spacingLeft=6;overflow=hidden;whiteSpace=wrap;html=1;strokeColor=#9f8d56;" vertex="1" parent="ZoKTxdcFLCi5wjSBSqeG-100">
          <mxGeometry x="30" width="270.0000000000002" height="30" as="geometry">
            <mxRectangle width="270.0000000000002" height="30" as="alternateBounds" />
          </mxGeometry>
        </mxCell>
        <mxCell id="ZoKTxdcFLCi5wjSBSqeG-103" value="" style="shape=tableRow;horizontal=0;startSize=0;swimlaneHead=0;swimlaneBody=0;fillColor=#fff2cc;collapsible=0;dropTarget=0;points=[[0,0.5],[1,0.5]];portConstraint=eastwest;top=0;left=0;right=0;bottom=0;strokeColor=#9f8d56;" vertex="1" parent="ZoKTxdcFLCi5wjSBSqeG-96">
          <mxGeometry y="90" width="300.0000000000002" height="30" as="geometry" />
        </mxCell>
        <mxCell id="ZoKTxdcFLCi5wjSBSqeG-104" value="FK" style="shape=partialRectangle;connectable=0;fillColor=#fff2cc;top=0;left=0;bottom=0;right=0;editable=1;overflow=hidden;whiteSpace=wrap;html=1;strokeColor=#9f8d56;" vertex="1" parent="ZoKTxdcFLCi5wjSBSqeG-103">
          <mxGeometry width="30" height="30" as="geometry">
            <mxRectangle width="30" height="30" as="alternateBounds" />
          </mxGeometry>
        </mxCell>
        <mxCell id="ZoKTxdcFLCi5wjSBSqeG-105" value="ANORDNUNGSVERTEILER_ID" style="shape=partialRectangle;connectable=0;fillColor=#fff2cc;top=0;left=0;bottom=0;right=0;align=left;spacingLeft=6;overflow=hidden;whiteSpace=wrap;html=1;strokeColor=#9f8d56;" vertex="1" parent="ZoKTxdcFLCi5wjSBSqeG-103">
          <mxGeometry x="30" width="270.0000000000002" height="30" as="geometry">
            <mxRectangle width="270.0000000000002" height="30" as="alternateBounds" />
          </mxGeometry>
        </mxCell>
        <mxCell id="ZoKTxdcFLCi5wjSBSqeG-109" value="" style="fontSize=12;html=1;endArrow=ERoneToMany;rounded=0;entryX=0.463;entryY=-0.018;entryDx=0;entryDy=0;entryPerimeter=0;fillColor=#fff2cc;strokeColor=#9f8d56;exitX=0.501;exitY=0.976;exitDx=0;exitDy=0;exitPerimeter=0;" edge="1" parent="1" source="ZoKTxdcFLCi5wjSBSqeG-41" target="ZoKTxdcFLCi5wjSBSqeG-82">
          <mxGeometry width="100" height="100" relative="1" as="geometry">
            <mxPoint x="190" y="530" as="sourcePoint" />
            <mxPoint x="280.0000000000002" y="605" as="targetPoint" />
          </mxGeometry>
        </mxCell>
        <mxCell id="ZoKTxdcFLCi5wjSBSqeG-110" value="" style="fontSize=12;html=1;endArrow=ERoneToMany;rounded=0;exitX=0.997;exitY=1.204;exitDx=0;exitDy=0;entryX=0;entryY=0.5;entryDx=0;entryDy=0;edgeStyle=elbowEdgeStyle;exitPerimeter=0;fillColor=#fff2cc;strokeColor=#9f8d56;" edge="1" parent="1" source="ZoKTxdcFLCi5wjSBSqeG-86" target="ZoKTxdcFLCi5wjSBSqeG-100">
          <mxGeometry width="100" height="100" relative="1" as="geometry">
            <mxPoint x="290" y="525" as="sourcePoint" />
            <mxPoint x="340" y="675" as="targetPoint" />
          </mxGeometry>
        </mxCell>
        <mxCell id="ZoKTxdcFLCi5wjSBSqeG-111" value="" style="fontSize=12;html=1;endArrow=ERoneToMany;rounded=0;exitX=1;exitY=0.5;exitDx=0;exitDy=0;entryX=0.5;entryY=0;entryDx=0;entryDy=0;fillColor=#fff2cc;strokeColor=#9f8d56;edgeStyle=orthogonalEdgeStyle;" edge="1" parent="1" source="ZoKTxdcFLCi5wjSBSqeG-51" target="ZoKTxdcFLCi5wjSBSqeG-96">
          <mxGeometry width="100" height="100" relative="1" as="geometry">
            <mxPoint x="340" y="735" as="sourcePoint" />
            <mxPoint x="500" y="735" as="targetPoint" />
            <Array as="points">
              <mxPoint x="870" y="445" />
              <mxPoint x="870" y="595" />
              <mxPoint x="760" y="595" />
            </Array>
          </mxGeometry>
        </mxCell>
        <mxCell id="ZoKTxdcFLCi5wjSBSqeG-112" value="Dienststelle" style="shape=table;startSize=30;container=1;collapsible=1;childLayout=tableLayout;fixedRows=1;rowLines=0;fontStyle=1;align=center;resizeLast=1;html=1;fillColor=#fff2cc;strokeColor=#9f8d56;" vertex="1" parent="1">
          <mxGeometry x="-40" y="310" width="180" height="90" as="geometry" />
        </mxCell>
        <mxCell id="ZoKTxdcFLCi5wjSBSqeG-113" value="" style="shape=tableRow;horizontal=0;startSize=0;swimlaneHead=0;swimlaneBody=0;fillColor=#fff2cc;collapsible=0;dropTarget=0;points=[[0,0.5],[1,0.5]];portConstraint=eastwest;top=0;left=0;right=0;bottom=1;strokeColor=#9f8d56;" vertex="1" parent="ZoKTxdcFLCi5wjSBSqeG-112">
          <mxGeometry y="30" width="180" height="30" as="geometry" />
        </mxCell>
        <mxCell id="ZoKTxdcFLCi5wjSBSqeG-114" value="PK" style="shape=partialRectangle;connectable=0;fillColor=#fff2cc;top=0;left=0;bottom=0;right=0;fontStyle=1;overflow=hidden;whiteSpace=wrap;html=1;strokeColor=#9f8d56;" vertex="1" parent="ZoKTxdcFLCi5wjSBSqeG-113">
          <mxGeometry width="30" height="30" as="geometry">
            <mxRectangle width="30" height="30" as="alternateBounds" />
          </mxGeometry>
        </mxCell>
        <mxCell id="ZoKTxdcFLCi5wjSBSqeG-115" value="ID" style="shape=partialRectangle;connectable=0;fillColor=#fff2cc;top=0;left=0;bottom=0;right=0;align=left;spacingLeft=6;fontStyle=5;overflow=hidden;whiteSpace=wrap;html=1;strokeColor=#9f8d56;" vertex="1" parent="ZoKTxdcFLCi5wjSBSqeG-113">
          <mxGeometry x="30" width="150" height="30" as="geometry">
            <mxRectangle width="150" height="30" as="alternateBounds" />
          </mxGeometry>
        </mxCell>
        <mxCell id="ZoKTxdcFLCi5wjSBSqeG-116" value="" style="shape=tableRow;horizontal=0;startSize=0;swimlaneHead=0;swimlaneBody=0;fillColor=#fff2cc;collapsible=0;dropTarget=0;points=[[0,0.5],[1,0.5]];portConstraint=eastwest;top=0;left=0;right=0;bottom=0;strokeColor=#9f8d56;" vertex="1" parent="ZoKTxdcFLCi5wjSBSqeG-112">
          <mxGeometry y="60" width="180" height="30" as="geometry" />
        </mxCell>
        <mxCell id="ZoKTxdcFLCi5wjSBSqeG-117" value="" style="shape=partialRectangle;connectable=0;fillColor=#fff2cc;top=0;left=0;bottom=0;right=0;editable=1;overflow=hidden;whiteSpace=wrap;html=1;strokeColor=#9f8d56;" vertex="1" parent="ZoKTxdcFLCi5wjSBSqeG-116">
          <mxGeometry width="30" height="30" as="geometry">
            <mxRectangle width="30" height="30" as="alternateBounds" />
          </mxGeometry>
        </mxCell>
        <mxCell id="ZoKTxdcFLCi5wjSBSqeG-118" value="Name" style="shape=partialRectangle;connectable=0;fillColor=#fff2cc;top=0;left=0;bottom=0;right=0;align=left;spacingLeft=6;overflow=hidden;whiteSpace=wrap;html=1;strokeColor=#9f8d56;" vertex="1" parent="ZoKTxdcFLCi5wjSBSqeG-116">
          <mxGeometry x="30" width="150" height="30" as="geometry">
            <mxRectangle width="150" height="30" as="alternateBounds" />
          </mxGeometry>
        </mxCell>
        <mxCell id="ZoKTxdcFLCi5wjSBSqeG-119" value="Team" style="shape=table;startSize=30;container=1;collapsible=1;childLayout=tableLayout;fixedRows=1;rowLines=0;fontStyle=1;align=center;resizeLast=1;html=1;fillColor=#fff2cc;strokeColor=#9f8d56;" vertex="1" parent="1">
          <mxGeometry x="-40" y="480" width="180" height="90" as="geometry" />
        </mxCell>
        <mxCell id="ZoKTxdcFLCi5wjSBSqeG-120" value="" style="shape=tableRow;horizontal=0;startSize=0;swimlaneHead=0;swimlaneBody=0;fillColor=#fff2cc;collapsible=0;dropTarget=0;points=[[0,0.5],[1,0.5]];portConstraint=eastwest;top=0;left=0;right=0;bottom=1;strokeColor=#9f8d56;" vertex="1" parent="ZoKTxdcFLCi5wjSBSqeG-119">
          <mxGeometry y="30" width="180" height="30" as="geometry" />
        </mxCell>
        <mxCell id="ZoKTxdcFLCi5wjSBSqeG-121" value="PK" style="shape=partialRectangle;connectable=0;fillColor=#fff2cc;top=0;left=0;bottom=0;right=0;fontStyle=1;overflow=hidden;whiteSpace=wrap;html=1;strokeColor=#9f8d56;" vertex="1" parent="ZoKTxdcFLCi5wjSBSqeG-120">
          <mxGeometry width="30" height="30" as="geometry">
            <mxRectangle width="30" height="30" as="alternateBounds" />
          </mxGeometry>
        </mxCell>
        <mxCell id="ZoKTxdcFLCi5wjSBSqeG-122" value="ID" style="shape=partialRectangle;connectable=0;fillColor=#fff2cc;top=0;left=0;bottom=0;right=0;align=left;spacingLeft=6;fontStyle=5;overflow=hidden;whiteSpace=wrap;html=1;strokeColor=#9f8d56;" vertex="1" parent="ZoKTxdcFLCi5wjSBSqeG-120">
          <mxGeometry x="30" width="150" height="30" as="geometry">
            <mxRectangle width="150" height="30" as="alternateBounds" />
          </mxGeometry>
        </mxCell>
        <mxCell id="ZoKTxdcFLCi5wjSBSqeG-123" value="" style="shape=tableRow;horizontal=0;startSize=0;swimlaneHead=0;swimlaneBody=0;fillColor=#fff2cc;collapsible=0;dropTarget=0;points=[[0,0.5],[1,0.5]];portConstraint=eastwest;top=0;left=0;right=0;bottom=0;strokeColor=#9f8d56;" vertex="1" parent="ZoKTxdcFLCi5wjSBSqeG-119">
          <mxGeometry y="60" width="180" height="30" as="geometry" />
        </mxCell>
        <mxCell id="ZoKTxdcFLCi5wjSBSqeG-124" value="FK" style="shape=partialRectangle;connectable=0;fillColor=#fff2cc;top=0;left=0;bottom=0;right=0;editable=1;overflow=hidden;whiteSpace=wrap;html=1;strokeColor=#9f8d56;" vertex="1" parent="ZoKTxdcFLCi5wjSBSqeG-123">
          <mxGeometry width="30" height="30" as="geometry">
            <mxRectangle width="30" height="30" as="alternateBounds" />
          </mxGeometry>
        </mxCell>
        <mxCell id="ZoKTxdcFLCi5wjSBSqeG-125" value="DIENSTSTELLE_ID" style="shape=partialRectangle;connectable=0;fillColor=#fff2cc;top=0;left=0;bottom=0;right=0;align=left;spacingLeft=6;overflow=hidden;whiteSpace=wrap;html=1;strokeColor=#9f8d56;" vertex="1" parent="ZoKTxdcFLCi5wjSBSqeG-123">
          <mxGeometry x="30" width="150" height="30" as="geometry">
            <mxRectangle width="150" height="30" as="alternateBounds" />
          </mxGeometry>
        </mxCell>
        <mxCell id="ZoKTxdcFLCi5wjSBSqeG-126" value="" style="fontSize=12;html=1;endArrow=ERoneToMany;rounded=0;entryX=0.5;entryY=0;entryDx=0;entryDy=0;fillColor=#fff2cc;strokeColor=#9f8d56;" edge="1" parent="1" target="ZoKTxdcFLCi5wjSBSqeG-119">
          <mxGeometry width="100" height="100" relative="1" as="geometry">
            <mxPoint x="50" y="400" as="sourcePoint" />
            <mxPoint x="500" y="435" as="targetPoint" />
          </mxGeometry>
        </mxCell>
        <mxCell id="ZoKTxdcFLCi5wjSBSqeG-127" value="" style="fontSize=12;html=1;endArrow=ERoneToMany;rounded=0;exitX=0.5;exitY=0.971;exitDx=0;exitDy=0;entryX=0.5;entryY=0;entryDx=0;entryDy=0;fillColor=#fff2cc;strokeColor=#9f8d56;exitPerimeter=0;" edge="1" parent="1" source="ZoKTxdcFLCi5wjSBSqeG-123" target="ZoKTxdcFLCi5wjSBSqeG-68">
          <mxGeometry width="100" height="100" relative="1" as="geometry">
            <mxPoint x="280" y="295" as="sourcePoint" />
            <mxPoint x="500" y="435" as="targetPoint" />
          </mxGeometry>
        </mxCell>
        <mxCell id="ZoKTxdcFLCi5wjSBSqeG-131" value="Dienststelleverteiler" style="shape=table;startSize=30;container=1;collapsible=1;childLayout=tableLayout;fixedRows=1;rowLines=0;fontStyle=1;align=center;resizeLast=1;html=1;fillColor=#fff2cc;strokeColor=#9f8d56;" vertex="1" parent="1">
          <mxGeometry x="240" y="310" width="230" height="90" as="geometry" />
        </mxCell>
        <mxCell id="ZoKTxdcFLCi5wjSBSqeG-141" value="" style="shape=tableRow;horizontal=0;startSize=0;swimlaneHead=0;swimlaneBody=0;fillColor=#fff2cc;collapsible=0;dropTarget=0;points=[[0,0.5],[1,0.5]];portConstraint=eastwest;top=0;left=0;right=0;bottom=0;strokeColor=#9f8d56;" vertex="1" parent="ZoKTxdcFLCi5wjSBSqeG-131">
          <mxGeometry y="30" width="230" height="30" as="geometry" />
        </mxCell>
        <mxCell id="ZoKTxdcFLCi5wjSBSqeG-142" value="FK,PK" style="shape=partialRectangle;connectable=0;fillColor=#fff2cc;top=0;left=0;bottom=0;right=0;editable=1;overflow=hidden;whiteSpace=wrap;html=1;strokeColor=#9f8d56;" vertex="1" parent="ZoKTxdcFLCi5wjSBSqeG-141">
          <mxGeometry width="40" height="30" as="geometry">
            <mxRectangle width="40" height="30" as="alternateBounds" />
          </mxGeometry>
        </mxCell>
        <mxCell id="ZoKTxdcFLCi5wjSBSqeG-143" value="DIENSTSTELLE_ID" style="shape=partialRectangle;connectable=0;fillColor=#fff2cc;top=0;left=0;bottom=0;right=0;align=left;spacingLeft=6;overflow=hidden;whiteSpace=wrap;html=1;strokeColor=#9f8d56;" vertex="1" parent="ZoKTxdcFLCi5wjSBSqeG-141">
          <mxGeometry x="40" width="190" height="30" as="geometry">
            <mxRectangle width="190" height="30" as="alternateBounds" />
          </mxGeometry>
        </mxCell>
        <mxCell id="ZoKTxdcFLCi5wjSBSqeG-154" value="" style="shape=tableRow;horizontal=0;startSize=0;swimlaneHead=0;swimlaneBody=0;fillColor=#fff2cc;collapsible=0;dropTarget=0;points=[[0,0.5],[1,0.5]];portConstraint=eastwest;top=0;left=0;right=0;bottom=0;strokeColor=#9f8d56;" vertex="1" parent="ZoKTxdcFLCi5wjSBSqeG-131">
          <mxGeometry y="60" width="230" height="30" as="geometry" />
        </mxCell>
        <mxCell id="ZoKTxdcFLCi5wjSBSqeG-155" value="FK,PK" style="shape=partialRectangle;connectable=0;fillColor=#fff2cc;top=0;left=0;bottom=0;right=0;editable=1;overflow=hidden;whiteSpace=wrap;html=1;strokeColor=#9f8d56;" vertex="1" parent="ZoKTxdcFLCi5wjSBSqeG-154">
          <mxGeometry width="40" height="30" as="geometry">
            <mxRectangle width="40" height="30" as="alternateBounds" />
          </mxGeometry>
        </mxCell>
        <mxCell id="ZoKTxdcFLCi5wjSBSqeG-156" value="ANORDNUNGSVERTEILER_ID" style="shape=partialRectangle;connectable=0;fillColor=#fff2cc;top=0;left=0;bottom=0;right=0;align=left;spacingLeft=6;overflow=hidden;whiteSpace=wrap;html=1;strokeColor=#9f8d56;" vertex="1" parent="ZoKTxdcFLCi5wjSBSqeG-154">
          <mxGeometry x="40" width="190" height="30" as="geometry">
            <mxRectangle width="190" height="30" as="alternateBounds" />
          </mxGeometry>
        </mxCell>
        <mxCell id="ZoKTxdcFLCi5wjSBSqeG-144" value="Teamverteiler" style="shape=table;startSize=30;container=1;collapsible=1;childLayout=tableLayout;fixedRows=1;rowLines=0;fontStyle=1;align=center;resizeLast=1;html=1;fillColor=#fff2cc;strokeColor=#9f8d56;" vertex="1" parent="1">
          <mxGeometry x="240" y="480" width="220" height="90" as="geometry" />
        </mxCell>
        <mxCell id="ZoKTxdcFLCi5wjSBSqeG-148" value="" style="shape=tableRow;horizontal=0;startSize=0;swimlaneHead=0;swimlaneBody=0;fillColor=#fff2cc;collapsible=0;dropTarget=0;points=[[0,0.5],[1,0.5]];portConstraint=eastwest;top=0;left=0;right=0;bottom=0;strokeColor=#9f8d56;" vertex="1" parent="ZoKTxdcFLCi5wjSBSqeG-144">
          <mxGeometry y="30" width="220" height="30" as="geometry" />
        </mxCell>
        <mxCell id="ZoKTxdcFLCi5wjSBSqeG-149" value="FK,PK" style="shape=partialRectangle;connectable=0;fillColor=#fff2cc;top=0;left=0;bottom=0;right=0;editable=1;overflow=hidden;whiteSpace=wrap;html=1;strokeColor=#9f8d56;" vertex="1" parent="ZoKTxdcFLCi5wjSBSqeG-148">
          <mxGeometry width="40" height="30" as="geometry">
            <mxRectangle width="40" height="30" as="alternateBounds" />
          </mxGeometry>
        </mxCell>
        <mxCell id="ZoKTxdcFLCi5wjSBSqeG-150" value="TEAM_ID" style="shape=partialRectangle;connectable=0;fillColor=#fff2cc;top=0;left=0;bottom=0;right=0;align=left;spacingLeft=6;overflow=hidden;whiteSpace=wrap;html=1;strokeColor=#9f8d56;" vertex="1" parent="ZoKTxdcFLCi5wjSBSqeG-148">
          <mxGeometry x="40" width="180" height="30" as="geometry">
            <mxRectangle width="180" height="30" as="alternateBounds" />
          </mxGeometry>
        </mxCell>
        <mxCell id="ZoKTxdcFLCi5wjSBSqeG-151" value="" style="shape=tableRow;horizontal=0;startSize=0;swimlaneHead=0;swimlaneBody=0;fillColor=#fff2cc;collapsible=0;dropTarget=0;points=[[0,0.5],[1,0.5]];portConstraint=eastwest;top=0;left=0;right=0;bottom=0;strokeColor=#9f8d56;" vertex="1" parent="ZoKTxdcFLCi5wjSBSqeG-144">
          <mxGeometry y="60" width="220" height="30" as="geometry" />
        </mxCell>
        <mxCell id="ZoKTxdcFLCi5wjSBSqeG-152" value="FK,PK" style="shape=partialRectangle;connectable=0;fillColor=#fff2cc;top=0;left=0;bottom=0;right=0;editable=1;overflow=hidden;whiteSpace=wrap;html=1;strokeColor=#9f8d56;" vertex="1" parent="ZoKTxdcFLCi5wjSBSqeG-151">
          <mxGeometry width="40" height="30" as="geometry">
            <mxRectangle width="40" height="30" as="alternateBounds" />
          </mxGeometry>
        </mxCell>
        <mxCell id="ZoKTxdcFLCi5wjSBSqeG-153" value="ANORDNUNGSVERTEILER_ID" style="shape=partialRectangle;connectable=0;fillColor=#fff2cc;top=0;left=0;bottom=0;right=0;align=left;spacingLeft=6;overflow=hidden;whiteSpace=wrap;html=1;strokeColor=#9f8d56;" vertex="1" parent="ZoKTxdcFLCi5wjSBSqeG-151">
          <mxGeometry x="40" width="180" height="30" as="geometry">
            <mxRectangle width="180" height="30" as="alternateBounds" />
          </mxGeometry>
        </mxCell>
        <mxCell id="ZoKTxdcFLCi5wjSBSqeG-157" value="" style="edgeStyle=entityRelationEdgeStyle;fontSize=12;html=1;endArrow=ERoneToMany;rounded=0;exitX=0;exitY=0.5;exitDx=0;exitDy=0;entryX=1;entryY=0.5;entryDx=0;entryDy=0;fillColor=#fff2cc;strokeColor=#9f8d56;" edge="1" parent="1" source="ZoKTxdcFLCi5wjSBSqeG-51" target="ZoKTxdcFLCi5wjSBSqeG-151">
          <mxGeometry width="100" height="100" relative="1" as="geometry">
            <mxPoint x="460" y="715" as="sourcePoint" />
            <mxPoint x="650" y="515" as="targetPoint" />
          </mxGeometry>
        </mxCell>
        <mxCell id="ZoKTxdcFLCi5wjSBSqeG-158" value="" style="edgeStyle=entityRelationEdgeStyle;fontSize=12;html=1;endArrow=ERoneToMany;rounded=0;exitX=0;exitY=0.5;exitDx=0;exitDy=0;entryX=1;entryY=0.5;entryDx=0;entryDy=0;fillColor=#fff2cc;strokeColor=#9f8d56;" edge="1" parent="1" source="ZoKTxdcFLCi5wjSBSqeG-51" target="ZoKTxdcFLCi5wjSBSqeG-154">
          <mxGeometry width="100" height="100" relative="1" as="geometry">
            <mxPoint x="650" y="485" as="sourcePoint" />
            <mxPoint x="470" y="565" as="targetPoint" />
          </mxGeometry>
        </mxCell>
        <mxCell id="ZoKTxdcFLCi5wjSBSqeG-159" value="" style="edgeStyle=entityRelationEdgeStyle;fontSize=12;html=1;endArrow=ERoneToMany;rounded=0;exitX=1;exitY=0.5;exitDx=0;exitDy=0;entryX=0;entryY=0.5;entryDx=0;entryDy=0;fillColor=#fff2cc;strokeColor=#9f8d56;" edge="1" parent="1" source="ZoKTxdcFLCi5wjSBSqeG-120" target="ZoKTxdcFLCi5wjSBSqeG-148">
          <mxGeometry width="100" height="100" relative="1" as="geometry">
            <mxPoint x="650" y="455" as="sourcePoint" />
            <mxPoint x="470" y="595" as="targetPoint" />
          </mxGeometry>
        </mxCell>
        <mxCell id="ZoKTxdcFLCi5wjSBSqeG-160" value="" style="edgeStyle=entityRelationEdgeStyle;fontSize=12;html=1;endArrow=ERoneToMany;rounded=0;exitX=1;exitY=0.5;exitDx=0;exitDy=0;entryX=0;entryY=0.5;entryDx=0;entryDy=0;fillColor=#fff2cc;strokeColor=#9f8d56;" edge="1" parent="1" source="ZoKTxdcFLCi5wjSBSqeG-113" target="ZoKTxdcFLCi5wjSBSqeG-141">
          <mxGeometry width="100" height="100" relative="1" as="geometry">
            <mxPoint x="150" y="535" as="sourcePoint" />
            <mxPoint x="250" y="565" as="targetPoint" />
          </mxGeometry>
        </mxCell>
      </root>
    </mxGraphModel>
  </diagram>
</mxfile>
